<svg xmlns="http://www.w3.org/2000/svg" width="166" height="101" viewBox="0 0 166 101">
    <g fill="none" fill-rule="evenodd">
        <g fill="#CAD6DE">
            <path d="M63.951 58.615a8.759 8.759 0 0 0-.142-.093l.12.074.022.02zm39.517-5.304c-.47 0-.907.017-1.337.052-.546.043-1.181.099-1.806.202-.722.12-1.396.383-2.08.663l-.132.055c-.645.265-1.313.54-1.92.897-.356.21-.647.396-.915.586a3.569 3.569 0 0 0-.514.443c-.147.153-.27.336-.39.513l-.04.062c-.31.456-.524.965-.708 1.446-.129.336-.238.688-.344 1.028-.043.136-.085.272-.129.407-.04.127-.073.26-.104.389l-.05.204-.054.191c-.038.137-.078.279-.105.42-.162.829-.33 1.686-.459 2.553l-.028.182c-.054.362-.109.725-.167 1.088l-.041.257c-.046.29-.093.592-.157.883-.311 1.414-.678 2.645-1.123 3.764-.427.968-.993 1.887-1.539 2.775l-.15.245-.043.07c-.176.285-.357.58-.55.862-.179.26-.37.524-.582.806-.46.562-.97 1.15-1.585 1.657-.38.273-.779.513-1.122.718-.176.104-.364.197-.545.287l-.2.1c-.517.216-1.122.458-1.757.588-.51.103-.9.178-1.27.243a5.36 5.36 0 0 1-.673.056c-.301 0-.58-.013-.852-.038a5.857 5.857 0 0 1-1.096-.284c-.237-.082-.474-.181-.704-.277-.531-.243-1.011-.55-1.452-.847-.284-.192-.56-.386-.82-.578a7.083 7.083 0 0 1-.848-.83c-.102-.147-.2-.295-.298-.445a5.474 5.474 0 0 1-.233-.413l-.095-.177c-.187-.338-.366-.689-.54-1.028l-.04-.079-.322-.629c-.3-.583-.611-1.186-.902-1.786l-.064-.13-.03-.064c.065-.254.032-.5-.11-.794a51.016 51.016 0 0 0-1.26-2.433 17.956 17.956 0 0 0-.253-.443l-.243-.569-.239-.561-.164-.4c-.482-1.177-.981-2.395-1.45-3.603-.09-.231-.211-.468-.484-.628a1.054 1.054 0 0 0-1.395.306 15.892 15.892 0 0 0-.679-.71c.061-.411.105-.745.138-1.05.023-.209.017-.422.011-.61l-.03-.22c0-.187-.047-.366-.142-.53-.115-.25-.278-.451-.45-.664l-.03-.036c-.243-.3-.595-.58-1.048-.833-.415-.232-.888-.366-1.345-.495-.6-.17-1.19-.281-1.898-.41-1.439-.259-2.884-.464-4.488-.686-2.603-.36-5.4-.602-8.806-.763-.556-.026-1.111-.056-1.667-.086-.83-.045-1.687-.09-2.53-.124a140.812 140.812 0 0 0-4.344-.103l-.64-.006c-.863-.008-1.726-.017-2.589-.017-.357 0-.713.002-1.07.005-1.261.012-2.544.054-3.783.095l-.734.024c-.488.016-.977.029-1.465.042l-.727.02c-.424.012-.855.04-1.272.067-.221.014-.443.028-.664.04l-1.384.074c-.987.052-1.974.105-2.96.164-1.497.088-3 .296-4.401.507-.608.093-1.313.204-2 .354-.707.155-1.42.336-2.111.51l-.54.137c-.503.127-1.004.253-1.503.388-.744.2-1.486.464-2.124.696-.677.244-1.348.529-2.034.823a7.288 7.288 0 0 0-1.728 1.022 4.76 4.76 0 0 0-1.407 1.927c-.18.46-.268.952-.337 1.376-.062.384-.104.702-.13 1.002-.043.472.013.968.166 1.476.058.192.145.382.23.565l.07.154c.089.196.202.383.312.564l.014.024c.231.383.512.743.783 1.09l.07.09.665.853c.468.599 1.102 1.375 1.861 2.07.427.391.876.738 1.376 1.119l.307.236c.205.16.417.323.63.476l.354.253c.48.342.959.685 1.442 1.023l.942.66c.876.614 1.753 1.228 2.631 1.84 1.122.78 2.26 1.536 3.382 2.247.45.284.894.576 1.338.869l.54.354c.43.281.872.559 1.298.827l.345.216c.84.53 1.677 1.065 2.515 1.6l1.231.787c.53.338 1.058.68 1.586 1.022.67.434 1.361.883 2.048 1.315.523.329 1.044.66 1.566.99.682.433 1.365.867 2.05 1.295.678.424 1.304.793 1.915 1.128l.32.176c.553.306 1.125.622 1.715.869.525.22 1.07.41 1.598.594a150.402 150.402 0 0 1 2.41.866c.539.2 1.083.411 1.61.616l.449.175c.202.078.404.158.607.239.42.166.854.338 1.286.493l.057.02 1.009.364c.24.087.49.164.73.239l.366.114c.598.192 1.199.379 1.8.565l.33.103c.215.066.44.123.656.178.09.023.18.045.271.07l.201.054c.231.063.47.128.71.18l.46.1c.546.12 1.11.243 1.67.351l.227.045c.655.128 1.332.26 2.003.371.827.136 1.517.248 2.236.353 1.477.215 2.964.41 4.42.583 2.98.352 5.957.562 8.848.626 1.956.042 3.985.062 6.2.062.933 0 1.865-.003 2.798-.01.483-.003.974-.026 1.45-.048l.646-.029c.472-.018.95-.049 1.414-.079l.705-.044c1.433-.083 2.837-.171 4.25-.34a320.84 320.84 0 0 0 4.575-.577l.042-.006c1.396-.186 2.839-.38 4.246-.633.182-.033.365-.064.548-.096.5-.086 1.016-.176 1.518-.294.21-.05.422-.097.634-.145.498-.114 1.014-.23 1.515-.37 1.46-.403 2.888-.803 4.308-1.25l.557-.174a340.59 340.59 0 0 0 1.55-.489c.23-.073.462-.145.694-.217.45-.14.918-.285 1.372-.44 1.268-.43 2.61-.9 4.222-1.475.671-.239 1.347-.498 2.001-.748l.115-.044c.233-.089.467-.192.693-.293l.31-.136 1.09-.469c.226-.097.443-.208.654-.315.106-.054.211-.108.317-.16l.225-.109c.202-.097.403-.194.6-.298l.453-.237c.51-.265 1.018-.531 1.522-.804a72.958 72.958 0 0 0 1.976-1.096 79.48 79.48 0 0 0 1.953-1.175c.09-.056.181-.111.273-.166.183-.111.373-.226.551-.348l.456-.312.663-.455c.511-.351 1.022-.721 1.516-1.08l.227-.164c.226-.164.446-.346.66-.521l.266-.22.185-.148c.184-.147.373-.3.553-.457.595-.519 1.188-1.038 1.78-1.557l.93-.807a66.918 66.918 0 0 0 2.352-2.097c.182-.173.418-.404.633-.66.253-.302.49-.642.772-1.104.159-.259.302-.533.44-.799l.072-.136c.15-.284.294-.608.457-1.019l.03-.076c.115-.293.235-.596.312-.903.212-.834.369-1.714.465-2.613.052-.485-.03-.962-.117-1.41a5.758 5.758 0 0 0-.412-1.266c-.196-.436-.464-.84-.724-1.23l-.123-.186c-.164-.25-.346-.494-.521-.73l-.061-.081c-.22-.296-.514-.683-.833-1.054-.144-.168-.317-.319-.484-.465-.053-.046-.105-.09-.155-.136a18.45 18.45 0 0 0-.38-.332l-.145-.125a7.365 7.365 0 0 0-.625-.499c-.489-.335-1.014-.586-1.463-.788a28.53 28.53 0 0 0-2.205-.856c-.657-.233-1.33-.45-1.98-.66l-.195-.062a54.607 54.607 0 0 0-3.952-1.097l-.57-.138a99.881 99.881 0 0 1-1.542-.379l-.317-.081c-.612-.158-1.246-.32-1.872-.47-.764-.181-1.527-.361-2.292-.54l-2.296-.543a141.242 141.242 0 0 0-3.972-.889l-.676-.14c-1.254-.262-2.55-.533-3.84-.687l-.587-.07-.586-.069c-.284-.034-.575-.052-.857-.07a30.94 30.94 0 0 1-.422-.029c-.67-.051-1.352-.077-2.013-.102-.255-.01-.51-.015-.76-.015z"/>
            <path d="M126.34 58.463l.098.013-.098-.013m-18.576-4.08a1.051 1.051 0 0 0 0 1.486c.21.21.456.28.743.308 2.274.208 4.543.447 6.808.738.892.126 1.782.26 2.672.397.921.142 1.834.324 2.75.492a25.23 25.23 0 0 0 1.667.25c.448.052.897.09 1.346.139.94.101 1.881.19 2.82.302 1.01.142 2.016.308 3.024.46 1.1.167 2.204.313 3.304.48 1.128.168 2.253.345 3.38.524 1.057.168 2.12.335 3.165.572.693.157 1.373.364 2.05.58.635.202 1.26.423 1.877.676.519.23 1.022.483 1.523.75.444.236.875.49 1.28.785.27.234.52.487.748.761.128.189.236.382.331.588.166.42.29.844.376 1.29.018.228.02.452.005.682-.06.307-.149.602-.26.894-.112.238-.24.46-.386.679-.134.16-.278.31-.438.448a8.147 8.147 0 0 1-.327.265c-.666.5-1.35.985-2.046 1.442a54.033 54.033 0 0 1-2.362 1.494c-.854.5-1.721.977-2.587 1.453-.853.47-1.734.878-2.616 1.287-.573.231-1.143.47-1.723.68-.79.286-1.58.571-2.373.849-.693.242-1.387.479-2.07.744-.748.29-1.492.587-2.232.896l-.25.106a1.06 1.06 0 0 0-.377.376c-.142.243-.181.539-.106.81.072.262.247.49.482.627.219.128.566.208.81.107a59.846 59.846 0 0 1 3.371-1.316 307.05 307.05 0 0 0 3.369-1.198c.539-.195 1.067-.42 1.6-.632.58-.232 1.14-.505 1.706-.767.97-.45 1.889-1 2.829-1.509a40.919 40.919 0 0 0 2.724-1.638c.43-.28.867-.55 1.289-.845.375-.262.752-.522 1.127-.786.27-.192.536-.392.796-.597.267-.212.533-.418.767-.668.231-.244.428-.522.608-.804.188-.293.314-.627.444-.948a4.843 4.843 0 0 0 .347-1.689c.015-.569-.097-1.149-.256-1.693a6.233 6.233 0 0 0-.233-.648c-.126-.302-.246-.6-.415-.879a4.72 4.72 0 0 0-.593-.769 7.973 7.973 0 0 0-.61-.591c-.82-.698-1.812-1.19-2.777-1.657-.997-.482-2.052-.848-3.108-1.174a28.188 28.188 0 0 0-1.395-.4c-.498-.126-1.004-.22-1.51-.316a84.948 84.948 0 0 0-3.365-.558c-1.08-.163-2.16-.327-3.242-.485-1.105-.161-2.213-.31-3.317-.485a67.808 67.808 0 0 0-3.448-.48c-1.123-.12-2.247-.222-3.37-.35-.99-.16-1.972-.37-2.962-.535-1.068-.18-2.14-.334-3.212-.486-2.467-.348-4.949-.594-7.43-.82a.588.588 0 0 0-.057-.004c-.249 0-.517.143-.685.31"/>
            <path d="M112.976 55.888c-.235.137-.411.365-.483.627-.075.272-.036.567.106.81.125.214.372.44.628.482 1.184.198 2.399.273 3.598.314 1.163.04 2.325.079 3.488.127 1.222.05 2.443.097 3.665.138 1.068.035 2.137.08 3.202.165.36.03.72.047 1.08.09l1.168.143c1.16.163 2.32.326 3.47.538.628.115 1.254.237 1.883.345.668.113 1.34.2 2.013.285.943.135 1.885.279 2.819.468.983.2 1.965.416 2.943.642 1.827.424 3.654.919 5.396 1.622.407.193.792.407 1.158.668.12.1.233.205.339.322.09.139.17.28.244.428.06.17.109.34.146.518.02.237.018.47.001.71a5.665 5.665 0 0 1-.248.926 9.1 9.1 0 0 1-.919 1.513c-.248.306-.519.586-.792.871-.285.298-.566.6-.841.907-.574.64-1.105 1.317-1.693 1.943-.3.32-.61.628-.948.909-.334.278-.674.548-1.012.822-.336.275-.675.547-1.007.828-.294.248-.584.5-.883.742-.854.616-1.78 1.134-2.713 1.62-.961.5-1.931.987-2.9 1.474-.476.238-.946.48-1.432.698-.47.21-.933.432-1.403.64-.959.423-1.888.91-2.823 1.383-.883.445-1.758.905-2.643 1.348-.889.443-1.792.855-2.687 1.286-.901.436-1.778.918-2.65 1.408-.848.477-1.715.906-2.604 1.297-.96.393-1.932.744-2.913 1.08-.483.165-.967.343-1.461.47-.547.14-1.097.266-1.647.387-1.097.242-2.195.477-3.287.741-.504.122-1.004.256-1.513.356-.562.11-1.13.191-1.695.28-.978.15-1.953.304-2.933.437l-.221.029a1.051 1.051 0 0 0-.464 1.756c.175.175.485.342.743.308 1.306-.174 2.606-.378 3.908-.58a37.86 37.86 0 0 0 1.575-.275c.524-.102 1.04-.256 1.558-.382 1.097-.266 2.202-.493 3.304-.736a20.753 20.753 0 0 0 1.508-.378c.519-.156 1.031-.336 1.545-.511a42.399 42.399 0 0 0 3.224-1.243c.978-.426 1.91-.933 2.842-1.45a46.388 46.388 0 0 1 2.948-1.52 73.254 73.254 0 0 0 2.912-1.409 229.519 229.519 0 0 1 3.03-1.55c.901-.453 1.822-.858 2.738-1.28.488-.225.971-.45 1.449-.697.492-.255.987-.502 1.48-.754.455-.233.913-.456 1.365-.691.517-.27 1.026-.55 1.532-.84.435-.249.87-.51 1.275-.805.476-.347.918-.73 1.368-1.109.791-.67 1.629-1.287 2.401-1.979.763-.684 1.388-1.51 2.06-2.281.325-.373.66-.741 1.002-1.098.166-.173.337-.342.5-.519a11 11 0 0 0 .653-.794c.685-.895 1.285-1.946 1.45-3.076.046-.32.096-.643.08-.967a4.618 4.618 0 0 0-.127-.973c-.185-.688-.537-1.401-1.071-1.885a6.594 6.594 0 0 0-1.485-1.01 13.337 13.337 0 0 0-1.629-.662c-.508-.176-1.014-.352-1.527-.51-.491-.153-.992-.28-1.49-.41a60.896 60.896 0 0 0-1.983-.484c-.666-.15-1.333-.293-1.999-.437-1.374-.298-2.765-.502-4.16-.681-.52-.074-1.04-.15-1.558-.244-.53-.097-1.058-.204-1.59-.293a129.571 129.571 0 0 0-3.411-.526c-.288-.04-.576-.076-.864-.11-.298-.036-.597-.085-.895-.11-.563-.045-1.127-.11-1.69-.136a285.557 285.557 0 0 0-3.669-.148c-1.455-.049-2.91-.118-4.365-.17-1.498-.051-3-.09-4.491-.266a9.119 9.119 0 0 1-.17-.029 1.828 1.828 0 0 0-.299-.028.97.97 0 0 0-.51.135"/>
            <path d="M142.974 71.64c-2.38 1.32-4.75 2.66-7.122 3.992-.498.28-.662.95-.377 1.437.293.5.938.657 1.437.376 2.373-1.332 4.742-2.671 7.123-3.99.5-.277.661-.952.377-1.438a1.045 1.045 0 0 0-.908-.513c-.18 0-.363.044-.53.137"/>
            <path d="M144.527 71.362l-.085.11.085-.11m.968-4.186l-.144.178a1.125 1.125 0 0 0-.059-.113l.203-.065m-14.225-8.604c-.143.242-.181.538-.106.809.067.243.247.517.483.627.664.313 1.366.531 2.067.747a1.054 1.054 0 0 0-.225.415c-.046.165-.048.33-.015.486a6.178 6.178 0 0 0-.398.079c-.453.106-.771.56-.771 1.013 0 .19.048.366.143.53.15.255.362.378.628.483.107.047.221.068.342.062.102.013.197.025.3.033l.327.024c.229.015.458.028.687.037.528.022 1.054.03 1.582.037.904.012 1.808.022 2.711.047l.38.01-.431.085c-.254.051-.508.099-.76.158-.169.04-.336.08-.503.125a3.31 3.31 0 0 0-.538.203 1.65 1.65 0 0 0-.433.327 1.053 1.053 0 0 0-.307.743c0 .25.102.58.307.743.11.086.218.171.33.255.17.107.352.175.542.241.198.068.433.086.637.11.185.022.37.038.556.054.288.024.573.055.86.077l-.025.01c-.354.15-.7.31-1.048.472-.084.033-.165.07-.245.112-.198.096-.347.268-.472.443-.228.318-.25.724-.13 1.087.07.21.187.4.346.55-.066.052-.131.107-.197.161-.15.126-.255.3-.372.455-.16.212-.173.563-.105.809.065.236.207.429.396.565-.422.232-.879.484-1.085.936a1.046 1.046 0 0 0 0 1.06c.176.3.546.547.908.52.102-.008.203-.015.304-.025-.418.27-.836.54-1.253.812-.657.427-1.323.844-1.972 1.285-1.02.695-2.041 1.39-3.053 2.098-.23.161-.406.347-.483.627-.074.271-.036.567.106.81.138.234.365.41.628.482.253.07.588.05.81-.106.656-.46 1.315-.913 1.977-1.364.436-.297.867-.6 1.309-.887 1.006-.655 2.012-1.31 3.02-1.962.934-.604 1.878-1.2 2.778-1.856.474-.344.913-.71 1.317-1.132.344-.36.648-.754.951-1.148l.298-.383c.397-.498.847-.94 1.307-1.378a8.67 8.67 0 0 0 .423-.43c.352-.195.707-.384 1.035-.618.167-.118.328-.248.475-.392.245-.24.393-.539.5-.86.02-.134.037-.268.051-.403l-.006-.062c.249-.243.495-.492.709-.765.541.032 1.095-.043 1.466-.45.298-.326.373-.747.258-1.166-.112-.411-.468-.701-.84-.87a3.455 3.455 0 0 0-.31-.122c-.032-.07-.068-.138-.099-.206-.043-.097-.11-.184-.171-.27a1.727 1.727 0 0 0-.449-.454c-.227-.164-.473-.261-.735-.36-.357-.135-.755-.185-1.129-.26a16.959 16.959 0 0 0-.988-.161c-.247-.086-.497-.159-.747-.237l-.702-.22c-.446-.14-.892-.278-1.338-.413l-.727-.22-.033-.038c-.096-.103-.188-.2-.295-.29a2.661 2.661 0 0 0-.75-.422 21.765 21.765 0 0 0-1.2-.429 24.646 24.646 0 0 0-1.388-.413c-.646-.176-1.292-.361-1.942-.523-1.428-.354-2.855-.72-4.291-1.043-.09-.02-.18-.03-.269-.03-.37 0-.72.174-.918.514"/>
        </g>
        <path fill="#3F4B55" d="M92.766 60.633l.024.177-.024-.177M90.568 38.81c-.262.072-.49.248-.628.482-.148.255-.166.527-.106.81.015.066.029.133.042.2.057.46.104.918.131 1.382.032.546.046 1.092.067 1.638.04 1.063.08 2.129.1 3.193.042 2.334.062 4.668.162 7.001l.083 1.906c.03.704.035 1.41.055 2.114a39.67 39.67 0 0 0 .345 4.227c.133 1.018.253 2.038.364 3.058.125 1.15.263 2.3.344 3.454.076 1.096.144 2.192.19 3.29.046 1.166.053 2.331.063 3.497.018 2.077.065 4.153.144 6.23.022.57.461 1.05 1.05 1.05.557 0 1.073-.478 1.051-1.05a249.314 249.314 0 0 1-.153-7.267 73.129 73.129 0 0 0-.087-3.17c-.06-1.157-.116-2.319-.23-3.473a182.658 182.658 0 0 0-.752-6.479 47.692 47.692 0 0 1-.227-3.367c-.034-1.154-.064-2.309-.115-3.464a129.57 129.57 0 0 1-.114-3.245c-.023-1.144-.036-2.29-.056-3.434a240.977 240.977 0 0 0-.113-4.013c-.02-.565-.036-1.131-.07-1.696a16.536 16.536 0 0 0-.079-.966c-.046-.393-.086-.789-.168-1.175-.1-.468-.57-.768-1.029-.768a.982.982 0 0 0-.264.035M68.422 39.255c-.185.185-.327.475-.308.743.08 1.13.113 2.259.13 3.39.021 1.22.047 2.44.083 3.66.031 1.048.092 2.097.102 3.147.011 1.133.01 2.266.01 3.399v13.88c0 2.112.001 4.225-.011 6.338-.014 2.294-.102 4.587-.209 6.88-.026.57.499 1.05 1.051 1.05.593 0 1.024-.48 1.05-1.05.112-2.393.197-4.786.21-7.18.014-2.31.01-4.62.01-6.932.002-4.523 0-9.047 0-13.57 0-1.04.021-2.081-.013-3.119-.036-1.108-.08-2.215-.113-3.323-.065-2.19-.043-4.383-.198-6.57-.02-.286-.1-.535-.308-.743a1.054 1.054 0 0 0-1.486 0"/>
        <path fill="#3F4B55" d="M96.814 36.717c.003.016.005.03.006.046l-.006-.046zm-.066-.215c.01.02.018.04.026.06v.001a5.256 5.256 0 0 0-.026-.06zm-27.503-.45c1.142-.07 2.29-.042 3.433-.042h6.638c2.265 0 4.53 0 6.796.006 2.36.007 4.72.008 7.078.084.57.019 1.132.068 1.697.13.565.083 1.132.161 1.675.348.06.03.121.061.18.095-.005.02-.012.04-.018.059-.04.079-.084.156-.131.232a2.215 2.215 0 0 1-.152.15 2.47 2.47 0 0 1-.22.127c-.647.237-1.327.357-2.008.455-1.057.127-2.115.186-3.179.24-1.08.057-2.16.047-3.24.047h-6.666c-3.534.003-7.067.027-10.6.068a1.086 1.086 0 0 0-.767-.338 22.106 22.106 0 0 1-1.629-.102c-.763-.076-1.53-.136-2.292-.225-.49-.07-.983-.153-1.45-.317a3.66 3.66 0 0 1-.358-.21 2.422 2.422 0 0 1-.059-.054l.04-.02a6.921 6.921 0 0 1 1.06-.259c.377-.068.755-.133 1.133-.194a48.675 48.675 0 0 1 3.04-.28zm4.927-2.142c-1.16 0-2.32-.003-3.48 0a32.603 32.603 0 0 0-3.24.18 32.94 32.94 0 0 0-3.426.508c-.377.08-.731.21-1.08.373-.102.047-.191.113-.279.18a3.382 3.382 0 0 0-.37.313c-.126.125-.228.274-.328.419-.159.231-.24.532-.266.806-.077.79.564 1.485 1.162 1.91.306.219.63.363.978.503.388.157.824.205 1.235.276l.044.008c.106.465.53.832 1.025.824a1041.6 1041.6 0 0 1 15.113-.126c2.258-.002 4.517 0 6.775 0 1.058 0 2.113 0 3.17-.055 1.167-.06 2.326-.135 3.484-.295a12.74 12.74 0 0 0 1.51-.286c.336-.09.666-.202.983-.345.553-.252.999-.689 1.305-1.209.145-.247.253-.53.324-.807.041-.161.05-.332.072-.497.023-.172-.03-.351-.06-.52l-.05-.125a1.2 1.2 0 0 0-.17-.356 2.21 2.21 0 0 0-.337-.395 2.82 2.82 0 0 0-.472-.344c-.228-.141-.494-.232-.744-.326-.463-.173-.972-.225-1.46-.299-.366-.055-.733-.1-1.1-.14a19.086 19.086 0 0 0-1.531-.093c-.62-.02-1.239-.033-1.858-.044-1.149-.02-2.298-.022-3.447-.028-2.136-.011-4.273-.014-6.41-.014-2.357 0-4.714.004-7.072.004z"/>
        <path fill="#3F4B55" d="M68.452 4.396a1.054 1.054 0 0 0 0 1.485c.21.21.455.282.743.308.498.045.992.104 1.487.167.741.108 1.482.223 2.204.423.84.232 1.672.484 2.498.762.717.24 1.423.518 2.138.763.749.255 1.497.505 2.234.79.217.098.432.2.646.305.284.141.552.323.82.49.52.327 1.008.701 1.498 1.071.179.14.358.28.532.424.252.208.519.41.753.637.246.24.477.485.697.75.186.224.365.451.545.68.448.582.894 1.166 1.347 1.745.133.174.265.35.391.529.152.213.281.444.41.672.243.43.447.88.645 1.332.3.733.582 1.477.845 2.225.149.421.292.85.394 1.286.098.422.181.845.267 1.27.183.903.381 1.8.595 2.696.186.781.37 1.56.495 2.352.103.877.173 1.757.246 2.636.086 1.046.17 2.092.24 3.14.02.285.101.535.308.742.195.196.465.307.743.307.543 0 1.088-.478 1.05-1.05-.086-1.288-.193-2.575-.3-3.862a65.934 65.934 0 0 0-.15-1.617c-.06-.542-.12-1.097-.242-1.628-.251-1.088-.514-2.173-.754-3.264-.23-1.049-.382-2.115-.72-3.139a39.76 39.76 0 0 0-1.308-3.396 12.29 12.29 0 0 0-.788-1.513c-.32-.52-.715-.997-1.095-1.476-.352-.46-.704-.922-1.06-1.379a50.8 50.8 0 0 0-.541-.68c-.155-.19-.31-.39-.485-.562-.84-.818-1.79-1.532-2.738-2.22a14.24 14.24 0 0 0-1.337-.874 12.82 12.82 0 0 0-1.656-.76c-.5-.194-1.01-.361-1.518-.531-.499-.167-.995-.344-1.49-.52-.547-.195-1.089-.404-1.643-.579-.666-.21-1.335-.409-2.01-.595-.641-.178-1.304-.287-1.963-.38a43.272 43.272 0 0 0-2.23-.27.631.631 0 0 0-.056-.002c-.25 0-.518.142-.687.31M57.374.783c-.705.064-1.373.19-2.023.476-.68.3-1.236.798-1.764 1.311-.404.393-.777.82-1.096 1.284-.323.47-.534 1.003-.72 1.538-.178.514-.309 1.046-.45 1.572-.149.561-.228 1.153-.282 1.73a78.03 78.03 0 0 0-.146 1.756c-.08 1.087-.19 2.169-.23 3.258-.045 1.17-.068 2.342-.083 3.512-.006.514-.008 1.028-.012 1.541-.002.46-.012.921.006 1.38.023.57.125 1.137.224 1.698.19 1.073.427 2.157.848 3.166.27.646.569 1.27.892 1.89.265.508.962.656 1.438.378.235-.137.41-.366.483-.628a1.082 1.082 0 0 0-.106-.809 26.04 26.04 0 0 1-.662-1.347c-.474-1.183-.769-2.443-.953-3.705-.034-.28-.06-.56-.07-.844-.01-.238-.002-.478 0-.717l.004-.834c.003-.48.007-.959.013-1.438.012-.985.03-1.97.068-2.955.037-.986.111-1.966.193-2.95.076-.919.135-1.839.246-2.754.088-.479.202-.944.33-1.413.122-.45.255-.896.423-1.33.135-.27.284-.524.458-.77.41-.485.862-.933 1.35-1.34.168-.116.342-.216.526-.305.311-.111.63-.184.956-.238.363-.032.728-.059 1.092-.05.384.01.762.038 1.142.08.376.058.758.114 1.117.238.473.231.916.517 1.374.777.491.28.98.555 1.444.878.296.26.54.56.785.867a48.39 48.39 0 0 1 1.23 1.749c.388.57.774 1.131 1.082 1.748.335.882.552 1.802.69 2.735.152 1.36.099 2.73.069 4.095-.015.663-.03 1.327-.074 1.989-.041.648-.099 1.292-.176 1.936-.05.316-.104.63-.17.944-.07.331-.16.658-.244.986-.148.57-.35 1.131-.572 1.678a20.885 20.885 0 0 1-.742 1.49c-.255.47-.562.903-.881 1.33-.382.449-.807.842-1.261 1.216a6.225 6.225 0 0 1-.48.334 6.752 6.752 0 0 1-.606.328 7.16 7.16 0 0 1-1.26.314 4.172 4.172 0 0 1-.757.014 12.282 12.282 0 0 1-2.432-.657 32.284 32.284 0 0 1-.638-.29c-.265-.124-.517-.187-.81-.106-.262.072-.49.248-.628.482-.142.243-.18.539-.105.81.066.242.247.517.482.628.639.298 1.286.6 1.968.783.296.08.59.16.888.23.295.068.59.127.89.174.388.06.76.076 1.149.034.252-.029.504-.068.755-.107.592-.088 1.145-.302 1.684-.553.513-.24.978-.6 1.414-.956a9.52 9.52 0 0 0 1.104-1.042c.39-.436.732-.929 1.05-1.419.28-.425.505-.887.735-1.339.274-.537.5-1.1.71-1.665.792-2.135 1.012-4.416 1.083-6.675.036-1.166.064-2.332.053-3.497a14.939 14.939 0 0 0-.393-3.23 11.298 11.298 0 0 0-.489-1.607 6.407 6.407 0 0 0-.409-.867c-.132-.227-.27-.449-.415-.667-.622-.935-1.247-1.873-1.944-2.754a17.796 17.796 0 0 0-.524-.64c-.32-.364-.74-.647-1.148-.904-.433-.271-.882-.513-1.323-.77-.21-.122-.417-.25-.629-.37-.435-.244-.878-.453-1.366-.569-.6-.142-1.226-.21-1.84-.26a8.382 8.382 0 0 0-.674-.026 9.56 9.56 0 0 0-.861.04"/>
        <path fill="#3F4B55" d="M70.884 13.596l.016.112a18.18 18.18 0 0 1-.016-.112M62.552.22c-.183.009-.363.026-.545.044a4.274 4.274 0 0 0-.755.138c-.154.044-.306.104-.457.157-.514.18-1.015.39-1.505.629-.235.116-.415.381-.482.627-.075.271-.036.568.106.81.137.235.365.41.628.483.287.079.548.021.809-.106.153-.075.307-.146.462-.216.434-.172.875-.346 1.333-.434.312-.027.621-.041.936-.04.325.002.65.035.973.07.567.093 1.134.202 1.674.402.39.19.75.422 1.103.673.473.413.877.88 1.267 1.369.426.597.779 1.234 1.076 1.904.428 1.104.811 2.227 1.082 3.38.264 1.12.454 2.247.614 3.384.15 1.217.214 2.441.22 3.668.004.62-.05 1.244-.09 1.862-.038.58-.095 1.159-.162 1.736a26.63 26.63 0 0 1-.263 1.504 13.5 13.5 0 0 1-.21.846c-.07.248-.169.494-.268.735-.11.238-.237.457-.385.671-.43.525-.897 1.016-1.364 1.507-.56.59-1.14 1.174-1.767 1.693-.387.277-.808.511-1.212.76-.181.112-.353.24-.53.357-.167.11-.337.21-.515.3a6.67 6.67 0 0 1-1.202.294 33.802 33.802 0 0 1-3.601.21 1.061 1.061 0 0 0-1.05 1.05c0 .57.478 1.054 1.05 1.05a33.116 33.116 0 0 0 3.681-.218c.555-.066 1.136-.14 1.66-.35.307-.122.608-.25.89-.425.218-.137.428-.288.642-.432.216-.143.444-.271.664-.407l.306-.188c.304-.187.583-.414.857-.645.398-.333.773-.704 1.138-1.074.78-.791 1.57-1.598 2.225-2.498.291-.4.46-.885.633-1.346.1-.27.19-.539.268-.815.144-.51.216-1.047.31-1.568.205-1.149.29-2.32.35-3.484.028-.562.062-1.125.043-1.688a47.783 47.783 0 0 0-.083-1.751 34.63 34.63 0 0 0-.414-3.288 30.78 30.78 0 0 0-.69-3.077c-.138-.501-.318-.992-.49-1.48a19.135 19.135 0 0 0-.666-1.654 8.656 8.656 0 0 0-.319-.614c-.13-.232-.256-.475-.413-.69a18.469 18.469 0 0 0-1.191-1.495c-.383-.43-.84-.784-1.314-1.105a6.4 6.4 0 0 0-1.175-.629c-.422-.172-.861-.27-1.304-.372-.459-.108-.938-.149-1.406-.197A7.477 7.477 0 0 0 62.552.22"/>
        <path fill="#3F4B55" d="M66.222 27.568c-.234.138-.41.366-.482.628-.08.288-.022.548.105.81.027.052.052.105.077.158.2.507.375 1.024.52 1.549.105.385.215.77.314 1.157.114.45.222.9.313 1.355a20.695 20.695 0 0 1 .2 1.24c.052.393.097.786.14 1.18l.036.28a1.051 1.051 0 0 0 1.757.463c.179-.179.335-.48.308-.742-.121-1.128-.258-2.258-.495-3.369-.142-.664-.326-1.319-.507-1.974-.22-.805-.482-1.606-.849-2.358-.114-.235-.381-.414-.627-.482a1.057 1.057 0 0 0-.81.106"/>
        <path fill="#000" d="M67.947 67.452c.15-.185.24-.42.24-.664 0-.155-.033-.3-.093-.43l-.147 1.094"/>
        <path fill="#3F4B55" d="M57.222 4.093c-.24.24-.483.48-.707.738-.246.283-.46.6-.653.921-.197.33-.367.68-.527 1.028-.139.3-.257.609-.37.919-.098.26-.148.538-.207.81-.234 1.1-.358 2.22-.482 3.337-.056.497-.118.993-.165 1.492-.052.558-.08 1.118-.099 1.678-.019.53-.037 1.062-.03 1.593.007.555.038 1.108.071 1.661.018.285.058.568.087.851.033.315.064.629.104.943.08.645.17 1.29.278 1.93.097.583.205 1.17.41 1.726.104.28.219.553.326.83.143.37.296.74.486 1.088.274.502.955.66 1.437.377.505-.295.651-.935.377-1.437a6.081 6.081 0 0 1-.217-.443c-.121-.297-.242-.595-.353-.895a7.835 7.835 0 0 1-.308-1.09 27.769 27.769 0 0 1-.325-2.004 35.313 35.313 0 0 1-.231-2.4 29.344 29.344 0 0 1-.022-2.343c.021-.808.068-1.612.144-2.417.036-.38.088-.76.13-1.14.04-.357.074-.715.117-1.072.077-.505.167-1.008.256-1.51.048-.27.101-.537.178-.799.061-.21.14-.415.22-.619.245-.526.512-1.042.846-1.517.223-.265.47-.507.715-.751a1.06 1.06 0 0 0 0-1.485 1.045 1.045 0 0 0-.742-.304c-.27 0-.54.101-.744.304M64.13 81.18l.01.085a.894.894 0 0 1-.01-.085m1.983-3.249c-.587.084-1.176.162-1.752.308-.242.062-.474.16-.696.273-.245.125-.456.33-.655.517-.158.15-.301.332-.427.507a3.695 3.695 0 0 0-.44.864c-.207.54-.11 1.15.085 1.68.116.313.243.63.42.915.33.533.726.985 1.226 1.361.913.685 2 1.05 3.072 1.403 1 .33 2.022.574 3.05.803a72.65 72.65 0 0 0 3.186.645c.507.09 1.02.147 1.529.221.638.094 1.276.17 1.918.23 1.076.103 2.164.026 3.242.006 1.144-.022 2.293-.009 3.435-.095.612-.046 1.222-.145 1.83-.233.533-.077 1.065-.16 1.598-.235 1.125-.16 2.264-.29 3.367-.567 1.032-.259 2.022-.648 3.044-.939.986-.28 1.975-.55 2.961-.83.805-.23 1.6-.51 2.367-.844.364-.159.72-.325 1.069-.512.404-.216.772-.506 1.13-.788.207-.163.309-.493.309-.743a1.054 1.054 0 0 0-1.05-1.05l-.28.037c-.176.049-.328.137-.458.265-.51.374-1.062.658-1.638.914a27.7 27.7 0 0 1-1.528.551c-.504.167-1.021.294-1.531.438-.995.278-1.994.541-2.974.866-.5.166-.998.34-1.503.487a14.95 14.95 0 0 1-1.585.351c-1.104.193-2.218.332-3.326.497-.322.048-.644.094-.967.14-.278.036-.556.073-.835.094-.368.028-.734.049-1.104.055-.806.014-1.61.026-2.417.042-.697.013-1.396.048-2.094.04a20.025 20.025 0 0 1-2.154-.163c-.77-.111-1.539-.214-2.304-.35-.792-.14-1.58-.32-2.368-.486-1.568-.333-3.119-.74-4.617-1.31a7.166 7.166 0 0 1-1.172-.652 4.546 4.546 0 0 1-.44-.445 5.014 5.014 0 0 1-.36-.622 4.58 4.58 0 0 1-.147-.476 2.04 2.04 0 0 1 .038-.13c.048-.094.101-.184.16-.273.1-.113.207-.218.32-.32.038-.024.076-.046.116-.067.614-.196 1.274-.263 1.909-.354.253-.036.505-.272.628-.483.142-.242.18-.537.106-.81a1.057 1.057 0 0 0-.484-.627l-.25-.106a1.076 1.076 0 0 0-.56 0"/>
        <path fill="#3F4B55" d="M56.982 81.255c-.25.147-.385.362-.483.628-.095.26-.188.52-.275.783a3.597 3.597 0 0 0-.114 1.749c.04.234.098.455.19.675.068.163.127.304.217.451.088.144.211.293.316.42.188.223.388.433.595.638.412.408.844.787 1.304 1.139.427.326.87.62 1.323.906.805.508 1.594 1.052 2.47 1.435.545.24 1.107.444 1.67.638.479.166.95.361 1.435.507.745.224 1.5.387 2.267.515.419.07.836.147 1.257.195l1.417.16c.759.085 1.526.119 2.288.167.7.043 1.401.09 2.1.155.29.047.574.1.86.169.556.134 1.137-.17 1.292-.734.148-.538-.178-1.158-.733-1.292-1.247-.301-2.54-.338-3.815-.417-.628-.04-1.256-.09-1.885-.138-.49-.038-.978-.106-1.465-.164l-.654-.11c-.255-.042-.516-.071-.767-.129l-.864-.197c-.25-.057-.494-.131-.74-.205-.429-.13-.847-.304-1.271-.45a39.53 39.53 0 0 1-1.381-.506 9.025 9.025 0 0 1-.84-.424c-.316-.184-.621-.384-.929-.58-.626-.4-1.26-.784-1.856-1.227a11.864 11.864 0 0 1-1.53-1.462 2.161 2.161 0 0 1-.12-.194 3.1 3.1 0 0 1-.104-.385 2.743 2.743 0 0 1-.003-.362c.085-.401.23-.784.372-1.168.093-.254.026-.583-.106-.81a1.06 1.06 0 0 0-.906-.52c-.186 0-.37.05-.532.144M62.095 91.816l.071.01-.07-.01m-10.148-4.124c-.412.411-.397 1.072 0 1.485.487.51.977 1.024 1.515 1.484.559.477 1.178.885 1.802 1.27 1.127.696 2.392 1.135 3.685 1.405 1.148.24 2.293.472 3.458.622.259.032.567-.133.743-.308a1.053 1.053 0 0 0 0-1.485L62.938 92a1.049 1.049 0 0 0-.53-.144l-.07-.009a50.622 50.622 0 0 1-1.805-.323c-1.062-.204-2.122-.437-3.127-.836-.81-.368-1.568-.849-2.283-1.376-.609-.491-1.15-1.057-1.69-1.621a1.011 1.011 0 0 0-.734-.305c-.275 0-.55.104-.751.305M6.036 59.038a70.51 70.51 0 0 0-2.2.04c-.42.016-.837.032-1.256.057-.607.036-1.225.083-1.81.251-.549.158-.886.735-.733 1.292.15.547.742.892 1.292.733a4.67 4.67 0 0 1 .499-.112c1.136-.11 2.277-.129 3.418-.154 1.134-.024 2.269-.013 3.402-.01 2.28.004 4.559.015 6.838.047 1.205.018 2.408.046 3.611.074 1.025.023 2.049.068 3.074.08 2.44.025 4.88.02 7.322.024 2.246.003 4.493.016 6.74.039 1.173.013 2.347.045 3.52.079 1.064.03 2.128.084 3.192.092 4.683.036 9.368.015 14.051-.01 3.57-.022 7.139-.087 10.708-.15.573-.01 1.05-.47 1.05-1.05 0-.564-.477-1.06-1.05-1.05-5.114.09-10.228.163-15.343.167l-6.831.003c-1.12 0-2.243.009-3.363-.028a805.529 805.529 0 0 0-3.776-.113c-2.177-.062-4.357-.068-6.535-.074-2.411-.007-4.822-.01-7.234-.01-2.275-.002-4.547-.078-6.821-.13a357.402 357.402 0 0 0-6.778-.083 826.672 826.672 0 0 0-3.228-.008c-.586 0-1.172 0-1.759.004M99.144 58.105h-.486c-.383 0-.765 0-1.147.008l-2.109.054c-.37.01-.74.055-1.11.084-.56.045-1.118.087-1.675.16l-.28.039c-.178.05-.333.14-.464.27a1.057 1.057 0 0 0-.307.742c0 .277.112.547.307.743.175.174.485.342.744.307.75-.099 1.505-.146 2.26-.207.499-.04.998-.05 1.5-.062 1.182-.03 2.361-.036 3.543-.04 2.304-.006 4.609.012 6.913.016 2.34.003 4.68.003 7.021.003.5 0 1 .012 1.5.02.492.008.983.008 1.473.04 1.291.084 2.58.175 3.87.277 2.243.177 4.493.246 6.743.282 2.267.038 4.534.06 6.798.19 1.271.074 2.542.132 3.814.187.515.022 1.03.02 1.545.026.503.007 1.001.011 1.504-.01 1.19-.047 2.378-.113 3.568-.183 1.11-.066 2.216-.144 3.326-.18.577-.02 1.155-.06 1.732-.057.687.005 1.376.008 2.064.012 1.148.006 2.296.021 3.443.033 2.22.024 4.439.03 6.659.038l2.876.008a1.06 1.06 0 0 0 1.05-1.05c0-.573-.477-1.05-1.05-1.05-2.357-.005-4.713-.015-7.07-.026-2.375-.012-4.75-.047-7.125-.06-1.145-.007-2.287.042-3.431.079-.573.018-1.146.07-1.718.105l-1.462.09c-.543.031-1.088.07-1.632.092-.378.014-.757.03-1.134.046-.222.009-.447.028-.668.025l-2.04-.027c-.497-.006-.993-.035-1.49-.057-1.156-.05-2.311-.115-3.467-.182a82.065 82.065 0 0 0-3.418-.105c-1.256-.02-2.51-.04-3.766-.062-1.001-.017-2.005-.045-3.005-.102l-2.042-.116c-.602-.033-1.205-.094-1.806-.142-.476-.037-.953-.07-1.43-.1-.546-.037-1.097-.096-1.644-.104-1.22-.02-2.44-.038-3.66-.038a4974.634 4974.634 0 0 1-10.42-.012c-.814-.002-1.628-.005-2.442-.005l-.755.001M105.402 84.743c-.178.05-.332.14-.463.27-.378.299-.754.601-1.133.899-.43.318-.86.626-1.315.905-.395.24-.804.46-1.226.649-.76.286-1.543.473-2.33.664-.871.211-1.737.442-2.604.667-.84.22-1.678.448-2.522.65-.98.237-1.96.48-2.935.74a1.06 1.06 0 0 0-.734 1.292c.153.554.74.88 1.292.733 1.133-.302 2.271-.576 3.41-.854.52-.125 1.034-.27 1.55-.406l1.607-.42a83.059 83.059 0 0 1 1.576-.396c.488-.119.981-.228 1.462-.375.994-.302 1.914-.751 2.791-1.302.918-.576 1.748-1.29 2.596-1.96.206-.163.308-.493.308-.743a1.054 1.054 0 0 0-1.05-1.05l-.28.037M87.023 97.763l-.113.016.113-.016m.166-.022l-.103.014.103-.014m12.971-2.824c-1.091.356-2.209.625-3.325.887-1.1.256-2.2.523-3.303.77-1.072.24-2.152.444-3.232.643-1.085.2-2.168.391-3.26.543-.53.07-1.058.137-1.589.197-.222.024-.443.048-.666.064-.31.023-.623.06-.935.067-.56.013-1.117.03-1.676.021-.612-.01-1.221-.028-1.832-.05a60.08 60.08 0 0 1-3.308-.237c-1.07-.098-2.139-.19-3.207-.292-.351-.034-.703-.066-1.052-.108a9.25 9.25 0 0 1-.159-.026c-.195-.167-.426-.237-.684-.253-.229-.015-.444-.028-.669.04a1.064 1.064 0 0 0-.733.733c-.13.468.083.932.482 1.186.286.182.654.25.982.31.318.06.644.104.966.135l1.04.1c.488.047.978.09 1.47.135 1.125.1 2.251.232 3.38.298 1.167.069 2.335.112 3.504.132a25.74 25.74 0 0 0 3.297-.177c2.292-.257 4.568-.643 6.828-1.099a91.856 91.856 0 0 0 3.358-.735c1.123-.27 2.253-.52 3.368-.818a29.235 29.235 0 0 0 1.513-.44c.544-.179.891-.721.734-1.293a1.085 1.085 0 0 0-1.012-.778.904.904 0 0 0-.28.045"/>
    </g>
</svg>
