<svg xmlns="http://www.w3.org/2000/svg" xmlns:xlink="http://www.w3.org/1999/xlink" width="83" height="73" viewBox="0 0 83 73">
    <defs>
        <path id="a" d="M.386.398h57.333V55.98H.386z"/>
        <path id="c" d="M0 .013h27.527v5.038H0z"/>
    </defs>
    <g fill="none" fill-rule="evenodd">
        <path fill="#D6DDE1" d="M56.249 13.736c-.06 0-.12 0-.182.002a16.32 16.32 0 0 0-1.38.06c-1.18.123-2.221.498-3.17.884-.79.32-1.683.684-2.514 1.106-1.642.835-2.969 1.578-4.174 2.337-1.226.767-2.419 1.598-3.526 2.381-1.041.737-1.96 1.553-2.723 2.255-1.46 1.345-2.566 3.03-3.635 4.66l-.257.391c-.503.764-.972 1.572-1.428 2.353l-.275.471c-.443.756-.84 1.552-1.224 2.32l-.3.601c-.182.361-.339.746-.49 1.118-.078.193-.156.385-.237.574l-.066.153c-.233.543-.475 1.105-.688 1.67l-.71 1.878c-.567 1.504-.849 3.063-1.05 4.39-.2 1.338-.349 2.692-.496 4.076l-.014.135c-.124 1.16-.253 2.36-.323 3.545-.052.865.417 1.726 1.224 2.249-.118.188-.207.399-.266.618-.174.634-.095 1.243.257 1.974 2.03 4.25 5.038 7.458 8.47 9.036 3.035 1.395 6.37 1.824 9.526 2.143 1.75.179 3.486.268 5.16.268 2.775 0 5.466-.247 8-.736 2.91-.562 5.65-1.652 8.178-2.746l1.11-.48c.876-.38 1.63-.943 2.316-1.496 1.836-1.478 3.272-3.253 4.433-4.795.815-1.083 1.567-2.24 2.296-3.36l.334-.514a28.023 28.023 0 0 0 2.85-5.621c.748-2.022 1.179-4.293 1.277-6.748.058-1.442-.112-2.869-.276-4.249-.192-1.629-.417-3.36-.868-5.033-.325-1.196-.682-2.228-1.092-3.156a15.598 15.598 0 0 0-1.565-2.745c-1.03-1.456-2.301-2.755-4.003-4.087-1.362-1.063-2.729-2.125-4.095-3.181-1.622-1.254-3.401-2.218-5.44-2.948-.72-.257-1.47-.47-2.196-.675l-.599-.171c-.645-.186-1.321-.307-1.958-.416l-.22-.037c-1.303-.223-2.65-.454-3.991-.454"/>
        <g transform="translate(18.297)">
            <mask id="b" fill="#fff">
                <use xlink:href="#a"/>
            </mask>
            <path fill="#989FA6" d="M28.946 5.83c-.072.667.07 1.351.41 1.934.37.64 1.11 1.326 1.871 1.447 1.257.202 2.507.478 3.736.816 2.094.575 4.199 1.107 6.22 1.907.86.406 1.671.862 2.458 1.403a48.711 48.711 0 0 1 2.072 1.525c1.372 1.092 2.696 2.252 3.845 3.582.209.315.392.64.558.978.305.88.517 1.766.699 2.681.135 1.43.145 2.844.09 4.284-.05 1.34-.211 2.671-.383 4a42.758 42.758 0 0 1-.538 2.654c-.187.774-.462 1.522-.744 2.264a22.182 22.182 0 0 1-1.217 2.338c-.519.86-1.105 1.674-1.69 2.49-.851 1.067-1.725 2.093-2.711 3.05a45.442 45.442 0 0 1-3.073 2.717c-1.335.974-2.705 1.96-4.173 2.724-.639.216-1.29.382-1.951.514-2.91.245-5.859-.089-8.758-.406-2.027-.34-4.032-.78-5.973-1.48-1.29-.602-2.51-1.343-3.737-2.068-.659-.389-1.316-.785-1.98-1.172-.803-.467-1.631-.883-2.4-1.405a15.295 15.295 0 0 1-1.624-1.63 46.052 46.052 0 0 1-1.669-2.532c-.646-1.05-1.306-2.111-1.85-3.221-.317-.922-.527-1.866-.685-2.828a25.9 25.9 0 0 1-.086-3.35c.052-1.183.168-2.355.299-3.53.169-1.015.353-2.017.658-3.005.282-.907.603-1.795.954-2.676.58-1.167 1.19-2.316 1.903-3.407a84.313 84.313 0 0 1 2.529-3.62c.849-1.072 1.738-2.077 2.787-2.954 1.055-.746 2.226-1.38 3.403-1.917 1.914-.741 3.98-1.136 5.995-1.496l2.375-.3c.789-.098 1.584-.215 2.38-.31zm-7.268-4.17c-2.085.403-4.174 1.043-6.094 1.943-1.058.496-2.11 1.134-3.069 1.801-1.87 1.3-3.267 3.025-4.631 4.822-.971 1.275-1.866 2.608-2.747 3.948a25.413 25.413 0 0 0-2.13 3.93 34.519 34.519 0 0 0-1.655 4.76c-.173.649-.272 1.335-.365 2-.15 1.055-.288 2.11-.41 3.17a28.152 28.152 0 0 0-.164 4.516c.037.841.155 1.713.332 2.536.26 1.224.616 2.395 1.222 3.503.747 1.37 1.492 2.75 2.297 4.087.387.645.777 1.285 1.226 1.887.445.591.89 1.18 1.384 1.732.774.865 1.747 1.555 2.718 2.174 1.312.835 2.638 1.647 3.943 2.49.597.388 1.2.766 1.81 1.137 1.214.74 2.527 1.31 3.878 1.748.672.22 1.348.47 2.035.644.81.207 1.607.39 2.43.543 1.792.335 3.618.51 5.43.697 3.451.36 7.115.554 10.338-.987 1.628-.78 3.138-1.857 4.605-2.908 1.43-1.024 2.757-2.183 4.053-3.372 1.139-1.044 2.142-2.194 3.087-3.415 1.08-1.396 2.086-2.822 2.98-4.345.476-.814.85-1.667 1.214-2.536.323-.773.634-1.545.876-2.347.495-1.641.772-3.315.98-5.016.27-2.18.456-4.35.467-6.547.005-1.327-.156-2.722-.41-4.016-.101-.514-.196-1.036-.343-1.537-.226-.755-.5-1.465-.805-2.193-1.079-2.569-3.304-4.544-5.42-6.26a51.314 51.314 0 0 0-4.118-3.02c-1.423-.932-3.083-1.528-4.68-2.08-.951-.327-1.936-.558-2.917-.788-.08-.806-.547-1.561-1.27-2.04-.812-.538-1.681-.958-2.585-1.31-.966-.376-1.927-.529-2.96-.592a11.008 11.008 0 0 0-.7-.02c-1.465 0-2.94.262-4.384.452-1.822.24-3.643.461-5.448.809z" mask="url(#b)"/>
        </g>
        <path fill="#989FA6" d="M58.65 51.025c-1.537.904-2.192 3.072-1.208 4.63a784.74 784.74 0 0 0 5.375 8.34 181.112 181.112 0 0 0 2.501 3.725c1.024 1.484 2.124 2.946 3.45 4.173 1.284 1.191 3.262 1.282 4.535 0 .6-.603.94-1.428.94-2.282 0-.892-.361-1.627-.94-2.28a26.304 26.304 0 0 1-.518-.593c-1.485-1.994-2.826-4.088-4.179-6.175-1.791-2.77-3.587-5.536-5.35-8.325-.663-1.048-1.786-1.67-2.946-1.67-.56 0-1.13.145-1.66.457"/>
        <g transform="translate(0 29.675)">
            <mask id="d" fill="#fff">
                <use xlink:href="#c"/>
            </mask>
            <path fill="#989FA6" d="M7.86.161c-1 .081-1.998.096-3.002.105L3.256.283a7.001 7.001 0 0 0-.669.03c-.132.011-.263.025-.394.037l-.565.076c-.078.03-.155.062-.231.095a2.044 2.044 0 0 0-.394.177h.001a2.037 2.037 0 0 0-.416.322c-.913.918-.754 2.603.415 3.241.198.113.406.206.625.278.2.056.553.076.797.104.208.026.411.04.62.051.381.021.764.03 1.145.04.95.026 1.899.051 2.85.067.407.005.818-.012 1.223-.037.614-.037 1.21-.021 1.824.025.901.07 1.798.19 2.704.23 1.877.079 3.76-.007 5.638-.06a259.11 259.11 0 0 1 6.69-.096c1.312-.004 2.408-1.098 2.408-2.42 0-1.317-1.096-2.427-2.407-2.423-1.674.005-3.348.008-5.022.061-1.34.042-2.68.102-4.019.132-1.314.03-2.642.07-3.956-.028-.632-.049-1.263-.1-1.898-.144-.278-.018-.56-.023-.84-.028h-.051c-.495 0-.986.072-1.474.148" mask="url(#d)"/>
        </g>
        <path fill="#989FA6" d="M25.591 19.367c-3.177.178-6.354.257-9.538.317-.742.014-1.487.038-2.231.035-.669-.002-1.338-.04-2.006-.056-.715-.018-1.428.021-2.145.042-.716.02-1.436.02-2.155.007-.888-.018-1.762-.185-2.65-.116-.393.032-.732.137-1.019.425-.27.27-.422.642-.422 1.026 0 .814.656 1.417 1.442 1.45.4.016.8.025 1.2.036.363.01.73.04 1.092.014.728-.05 1.456-.095 2.188-.132.703-.035 1.41-.069 2.116-.055.689.013 1.383.097 2.07.155 1.476.125 2.97.1 4.45.116a87.281 87.281 0 0 0 4.459-.065c1.049-.042 2.1-.097 3.15-.155.823-.047 1.512-.659 1.512-1.521 0-.773-.648-1.525-1.442-1.525-.023 0-.047 0-.07.002"/>
    </g>
</svg>
